<!-- Generated by IcoMoon.io -->
<svg version="1.1" xmlns="http://www.w3.org/2000/svg" width="992" height="1024" viewBox="0 0 992 1024">
<title></title>
<g id="icomoon-ignore">
</g>
<path fill="#fff" d="M681.201 279.353c-32.576 23.090-68.916 41.526-105.905 53.727l-13.312 4.393-0.608 80.124 4.355-0.732c28.585-4.81 62.425-18.055 80.133-31.363 3.698-2.781 7.044-5.055 7.434-5.055s0.709 75.789 0.709 168.42v168.42h94.917v-444.49h-58.472l-9.252 6.557zM186.066 282.742c-0.472 0.472-0.857 98.436-0.857 217.702v216.842h98.39v-149.321l28.649-0.003c72.371-0.012 112.896-12.082 147.588-43.957 29.702-27.292 43.037-59.67 42.918-104.203-0.211-79.296-39.582-122.779-122.246-135.014-13.87-2.055-192.555-3.933-194.441-2.046zM339.739 358.574c39.547 4.824 58.956 24.867 60.426 62.385 2.029 51.872-21.128 71.379-86.181 72.603l-30.385 0.57v-136.837l22.861 0.003c12.574 0.003 27.549 0.576 33.279 1.276z"></path>
<path fill="#0b572d" d="M750.082 494.175v223.11h-97.232v-335.622l-9.359 6.372c-26.337 17.933-83.244 37.162-83.244 28.128 0-2.063-10.059-12.75-40.704-43.248-22.387-22.279-39.912-39.205-38.942-37.614s3.397 5.553 5.397 8.806c24.233 39.405 24.485 106.704 0.559 148.039-30.585 52.832-78.804 75.086-166.496 76.837l-35.883 0.718-0.596 147.585h-48.703c-31.809 0-48.57 0.399-48.318 1.152 0.211 0.634 66.011 66.786 146.222 147.006l145.837 145.854 21.426-0.006c58.808-0.012 123.85-12.383 174.798-33.247 40.704-16.668 90.073-42.4 98.39-51.287 1.166-1.244 16.061-11.535 16.697-11.535 6.352 0 66.352-56.635 87.295-82.399 6.566-8.074 12.996-15.887 14.293-17.363 12.629-14.374 37.154-54.771 52.951-87.228 8.574-17.618 20.989-47.997 22.685-55.512 0.431-1.91 2.272-8.421 4.089-14.469 12.701-42.253 20.763-92.784 20.763-130.12v-15.152l-241.923-241.917v223.113zM284.467 359.089c-0.477 0.498-0.868 30.816-0.868 67.371v66.462l30.964-0.483c62.417-0.972 85.046-18.914 85.061-67.44 0.012-35.417-16.55-56.484-50.046-63.667-9.454-2.026-63.534-3.889-65.111-2.243z"></path>
<path fill="#22af60" d="M447.389 21.1c-34.15 3.8-74.192 12.252-102.441 21.625-6.685 2.217-16.061 5.238-20.835 6.717-4.775 1.476-9.463 3.050-10.418 3.496-0.955 0.449-3.039 1.369-4.63 2.043-12.203 5.177-33.881 15.441-43.957 20.815-11.153 5.95-17.027 9.457-45.172 26.982-29.986 18.674-73.801 58.128-104.221 93.852-3.956 4.647-8.363 9.801-9.793 11.457-1.43 1.652-4.454 5.819-6.722 9.26-2.266 3.438-7.287 10.681-11.153 16.093-13.792 19.296-34.193 53.243-35.377 58.875-0.22 1.042-2.33 5.802-4.685 10.577-18.303 37.064-34.274 86.482-40.592 125.592-0.926 5.73-1.948 11.72-2.272 13.312-3.305 16.243-5.131 108.046-2.416 121.54 0.321 1.592 0.917 8.074 1.325 14.403 0.408 6.332 0.929 11.807 1.152 12.171 0.226 0.365 1.285 5.863 2.356 12.221 4.569 27.132 13.025 57.798 23.926 86.762 6.685 17.765 8.803 22.552 23.339 52.702 27.248 56.516 84.057 125.69 133.833 162.962 4.801 3.594 9.463 7.252 10.363 8.126 0.897 0.877 10.794 7.602 21.993 14.949 11.196 7.347 21.77 14.33 23.495 15.522 1.725 1.189 3.426 2.165 3.785 2.165 0.356 0 2.59 1.218 4.966 2.706 5.417 3.392 21.336 11.569 27.468 14.107 2.547 1.053 9.579 4.202 15.627 6.997 33.363 15.412 79.652 29.343 118.646 35.701 26.149 4.263 61.928 7.518 61.928 5.634 0-0.489-65.632-66.529-145.848-146.757l-145.848-145.863v-435.788h87.688c155.991 0 155.919-0.026 238.734 82.74l48.037 48.008 1.158-75.465 17.363-6.025c36.896-12.805 72.308-30.834 101.501-51.672l11.211-8.004h58.018l0.59 446.226 0.286-223.4 0.286-223.403 241.923 241.917-0.003-12.733c-0.012-34.133-6.983-79.762-18.040-118.091-2.934-10.172-5.828-20.578-6.43-23.124-9.622-40.699-55.168-122.018-91.546-163.449-3.357-3.823-7.747-8.977-9.758-11.457-18.060-22.274-70.898-67.944-96.283-83.223-1.056-0.637-2.182-1.453-2.5-1.812-1.531-1.731-37.212-21.834-52.089-29.346-76.822-38.797-183.1-58.090-267.967-48.645zM331.347 359.251c1.114 0.289 2.937 0.289 4.051 0 1.114-0.292 0.203-0.53-2.026-0.53s-3.14 0.237-2.026 0.53zM503.859 414.592c0.009 3.183 0.234 4.349 0.501 2.59 0.266-1.762 0.26-4.367-0.014-5.788-0.275-1.424-0.495 0.014-0.486 3.198zM503.845 427.904c0 2.865 0.226 4.037 0.501 2.604 0.278-1.432 0.278-3.776 0-5.209-0.275-1.432-0.501-0.26-0.501 2.604zM294.946 493.591c6.56 0.205 16.978 0.205 23.151-0.003 6.175-0.208 0.807-0.376-11.925-0.376s-17.782 0.171-11.225 0.379zM284.355 568.833c-0.295 0.477 8.658 0.735 19.901 0.57 38.589-0.561 42.386-0.955 11.535-1.195-16.992-0.133-31.14 0.148-31.436 0.625z"></path>
</svg>
