<!-- Generated by IcoMoon.io -->
<svg version="1.1" xmlns="http://www.w3.org/2000/svg" width="1024" height="1024" viewBox="0 0 1024 1024">
<title></title>
<g id="icomoon-ignore">
</g>
<path fill="#fff" d="M224.343 509.094v223.024l99.006-0.62 0.305-76.012 0.305-76.015 36.451-0.694c74.26-1.411 113.91-14.602 148.55-49.417 60.998-61.309 52.354-175.812-16.41-217.38-36.528-22.081-54.901-24.743-175.427-25.404l-92.781-0.507v223.024zM715.814 320.132c-5.217 1.479-24.959 7.067-43.871 12.417-18.912 5.347-36.11 10.218-38.221 10.822l-3.836 1.097-0.628 69.262-51.578 0.64v71.094l24.603 0.018c13.532 0.009 25.243 0.427 26.026 0.925 1.082 0.685 1.533 21.672 1.876 86.832 0.486 93.148 0.302 90.371 7.304 110.501 9.281 26.684 30.893 45.113 61.132 52.126 24.052 5.576 71.56 3.047 92.781-4.938l6.818-2.564v-35.615c0-33.463-0.124-35.559-2.075-34.726-33.849 14.454-58.728 7.452-66.998-18.85-2.638-8.38-2.662-9.145-2.662-80.787v-72.327l71.735-0.628v-71.106h-72.301l-0.311-48.442-0.308-48.442-9.486 2.692zM395.083 366.256c33.994 9.16 49.088 29.589 49.088 66.446 0 50.445-23.592 69.171-88.512 70.25l-31.717 0.528v-140.369l31.717 0.534c25.223 0.424 33.294 0.96 39.424 2.611z"></path>
<path fill="#0f1924" d="M840.905 129.164c2.211 2.282 4.289 4.15 4.615 4.15s-1.218-1.867-3.43-4.15c-2.211-2.282-4.289-4.15-4.615-4.15s1.218 1.867 3.43 4.15zM164.097 138.946l-6.951 6.818 6.625-5.84c3.643-3.21 7.129-6.278 7.749-6.818 0.62-0.537 0.768-0.978 0.329-0.978-0.442 0-3.928 3.068-7.751 6.818zM867.583 153.471c5.843 5.869 10.888 10.671 11.214 10.671s-4.186-4.802-10.028-10.671c-5.843-5.869-10.888-10.671-11.214-10.671s4.186 4.802 10.028 10.671zM143.066 159.696l-4.686 5.039 5.039-4.686c2.772-2.579 5.039-4.847 5.039-5.039 0-0.898-1.032 0-5.392 4.686zM728.264 366.013v47.126h69.956v74.699h-70.042l0.341 73.217 0.338 73.217 2.81 6.972c6.489 16.096 15.153 21.485 34.539 21.485 14.131 0 13.704 0.101 30.532-7.307 1.168-0.516 1.482 7.253 1.482 36.677v37.329l-5.632 2.416c-44.304 18.998-117.861 7.971-141.658-21.236-21.085-25.881-22.573-34.812-23.139-138.857l-0.454-83.864-50.25-0.64-0.314-37.053-0.311-37.053h22.899l-30.108-29.939c-16.558-16.466-32.426-32.073-35.257-34.682l-5.149-4.743 3.821 6.521c27.553 47.013 22.181 127.308-11.223 167.776-38.185 46.26-83.215 62.083-177.051 62.219l-19.268 0.030v151.769h-49.882c-49.257 0-49.876 0.030-49.503 2.377 0.207 1.307 64.019 66.034 141.797 143.84s141.050 141.83 140.603 142.278c-3.415 3.415 58.437-0.91 89.102-6.228 18.355-3.184 61.615-13.627 64.028-15.456 0.652-0.492 8.122-3.187 16.6-5.982 8.478-2.798 16.481-5.768 17.785-6.598 1.304-0.833 5.84-2.813 10.078-4.399 13.481-5.048 52.091-23.699 56.913-27.493 0.978-0.768 4.446-2.89 7.707-4.716 6.45-3.607 26.903-17.187 27.864-18.497 0.326-0.445 4.538-3.356 9.361-6.465 9.687-6.252 24.476-17.889 34.51-27.158 35.778-33.054 43.331-40.966 63.488-66.497 2.573-3.261 5.516-6.729 6.542-7.707 13.579-12.969 54.201-83.289 67.463-116.791 11.362-28.706 25.051-75.369 28.003-95.449 0.43-2.935 1.574-5.97 2.543-6.744 2.505-1.998 13.238 9.035-140.511-144.427l-141.356-141.089v47.123zM325.127 433.123v68.942h19.268c72.067-0.006 98.282-18.301 98.531-68.77 0.243-49.049-22.825-66.77-89.046-68.406l-28.753-0.708v68.942zM144.851 868.742c2.908 3.098 5.442 5.632 5.632 5.632 0.892 0-0.050-1.064-5.285-5.979l-5.632-5.285 5.285 5.632zM484.914 1021.054c1.473 0.285 3.607 0.273 4.743-0.024 1.132-0.296-0.074-0.531-2.683-0.516-2.609 0.012-3.536 0.255-2.060 0.539z"></path>
<path fill="#283c4f" d="M459.703 7.085c-40.815 4.183-101.662 18.399-131.612 30.751-1.956 0.806-8.042 3.237-13.526 5.404-20.75 8.193-62.599 30.268-83.108 43.835-0.978 0.649-5.513 3.652-10.078 6.678-116.735 77.349-205.698 225.193-217.679 361.747-3.068 34.963-1.799 127.133 1.832 133.044 0.225 0.368 1.562 7.339 2.964 15.491 36.857 214.015 217.062 385.334 434.608 413.177 20.115 2.576 62.551 4.876 64.76 3.51 0.708-0.439-60.758-62.821-140.238-142.328-77.829-77.853-141.676-142.619-141.883-143.926s-0.874-2.377-1.482-2.377c-0.676 0-1.103-86.203-1.103-222.911v-222.911l91.595 0.009c89.787 0.009 101.107 0.388 123.016 4.108 34.107 5.792 65.622 22.321 82.975 43.515 3.376 4.126 7.022 8.57 8.101 9.874 1.076 1.304 1.82 2.81 1.654 3.35-0.169 0.537 0.24 0.64 0.907 0.228s16.265 14.219 34.664 32.518l33.454 33.268h27.92l0.628-69.363 6.521-1.921c22.125-6.515 90.857-26.008 91.595-25.979 0.489 0.021 1.017 22.045 1.171 48.946l0.285 48.91 0.323-47.413 0.323-47.41 280.788 280.776 1.177-4.642c8.525-33.561 7.651-121.273-1.716-172.418-29.136-159.097-127.661-290.318-273.754-364.611-15.423-7.843-43.204-20.009-48.614-21.289-0.652-0.154-1.986-0.584-2.964-0.957-63.079-24.058-154.33-35.767-223.504-28.682zM372.258 365.36c1.467 0.285 3.868 0.285 5.336 0 1.467-0.282 0.267-0.513-2.668-0.513s-4.135 0.231-2.668 0.513zM589.834 487.535c7.010 0.21 18.482 0.21 25.492 0 7.010-0.207 1.275-0.379-12.746-0.379s-19.757 0.172-12.746 0.379zM727.365 555.718l0.285 69.067 0.317-68.456 0.314-68.456 70.531-0.664-71.735-0.557 0.288 69.067zM370.48 501.698c1.141 0.296 3.009 0.296 4.15 0 1.141-0.299 0.207-0.542-2.075-0.542s-3.216 0.243-2.075 0.542zM510.614 529.633l-3.483 3.854 3.854-3.483c2.119-1.915 3.854-3.649 3.854-3.854 0-0.916-0.978-0.11-4.224 3.483zM336.75 580.022c6.72 0.21 17.391 0.21 23.714-0.003 6.326-0.213 0.827-0.385-12.216-0.385s-18.215 0.175-11.498 0.388zM763.538 664.156c1.467 0.285 3.868 0.285 5.336 0 1.467-0.282 0.267-0.513-2.668-0.513s-4.135 0.231-2.668 0.513zM654.158 714.305c2.546 2.609 4.897 4.743 5.223 4.743s-1.491-2.134-4.037-4.743c-2.546-2.609-4.897-4.743-5.223-4.743s1.491 2.134 4.037 4.743z"></path>
</svg>
