<!-- Generated by IcoMoon.io -->
<svg version="1.1" xmlns="http://www.w3.org/2000/svg" width="1024" height="1024" viewBox="0 0 1024 1024">
<title></title>
<g id="icomoon-ignore">
</g>
<path fill="#bfbfbf" d="M0 511.998v510.688h1024l-1.325-1020.048-1022.675-1.325v510.688zM933.405 401.731v309.821h-842.82l-0.667-310.485-0.67-310.488 844.156 1.329v309.821zM261.248 233.387c-63.839 30.178-42.929 124.907 27.569 124.907 28.11 0 50.054-13.981 61.084-38.921 24.251-54.82-34.352-111.657-88.654-85.986zM623.318 366.096c-37.402 56.365-69.195 102.507-70.651 102.534-1.46 0.029-24.49-21.809-51.18-48.528s-49.365-48.281-50.389-47.918c-1.024 0.364-23.867 36.099-50.762 79.411-26.892 43.312-49.443 79.291-50.107 79.953s-17.575-15.133-37.583-35.101c-20.008-19.971-37.596-35.557-39.083-34.639-3.341 2.064-79.32 153.95-79.291 158.501 0.019 2.609 66.175 3.282 321.966 3.282 305.358 0 321.877-0.236 320.647-4.594-0.712-2.527-17.532-44.767-37.379-93.866-19.843-49.099-51.272-126.99-69.834-173.097-18.567-46.102-34.793-84.86-36.056-86.124-1.316-1.316-31.376 41.52-70.297 100.183z"></path>
</svg>
