<!-- Generated by IcoMoon.io -->
<svg version="1.1" xmlns="http://www.w3.org/2000/svg" width="1024" height="1024" viewBox="0 0 1024 1024">
<title></title>
<g id="icomoon-ignore">
</g>
<path fill="#fff" d="M652.732 267.010c-31.179 4.275-65.898 16.575-89.603 31.745l-5.656 3.617v85.691l7.442-5.906c32.18-25.526 61.165-36.826 97.509-38.008 47.686-1.554 68.806 14.152 70.938 52.749 2.075 37.609-18.293 66.017-78.844 109.979-90.406 65.633-118.478 110.47-118.478 189.234v23.961h296.492v-80.97h-189.591l0.828-4.465c3.679-19.861 24.13-39.678 87.438-84.73 66.211-47.114 93.261-83.253 100.81-134.663 14.842-101.117-61.659-164.369-179.286-148.234zM190.412 273.068c-0.479 0.482-0.875 101.254-0.875 223.941v223.063h101.212v-153.322l38.401-0.586c63.153-0.964 98.432-10.321 130.716-34.668 38.91-29.343 56.488-65.961 56.378-117.442-0.173-81.663-40.562-126.224-125.902-138.908-14.146-2.102-197.992-4.013-199.93-2.078zM358.796 352.627c34.141 7.775 50.535 27.747 51.886 63.213 2.006 52.684-22.433 72.977-89.272 74.129l-30.661 0.527v-141.066l30.066 0.697c20.242 0.47 32.653 1.286 37.981 2.501z"></path>
<path fill="#742118" d="M816.901 323.267c20.296 33.903 23.49 84.917 7.784 124.351-15.834 39.756-38.708 64.252-102.891 110.19-54.803 39.223-77.392 61.992-77.398 78.020v3.275h189.326v80.97h-299.166l0.634-28.875c0.804-36.66 3.438-49.517 15.301-74.689 19.105-40.544 41.354-64.398 101.644-108.967 68.128-50.368 87.781-80.776 79.047-122.303-11.023-52.41-94.741-55.637-160.627-6.195l-13.521 10.145-32.528-32.51c-17.888-17.879-32.525-31.873-32.525-31.099 0 0.777 0.524 1.735 1.167 2.131 4.566 2.822 15.357 26.824 19.567 43.524 19.838 78.66-15.512 151.393-87.965 180.985-26.756 10.928-47.189 14.089-97.387 15.063l-36.615 0.711v152.077h-50.109c-32.727 0-49.972 0.411-49.713 1.185 0.217 0.652 67.91 68.747 150.428 151.324l150.032 150.136 30.959-0.61c32.242-0.637 48.921-2.23 77.993-7.448 44.027-7.906 77.924-18.989 133.362-43.611 15.655-6.951 49.782-27.36 67.276-40.235 5.239-3.855 9.984-7.037 10.547-7.070 7.347-0.417 68.783-58.581 91.261-86.4 6.222-7.698 12.529-15.399 14.015-17.114 4.626-5.329 22.636-31.587 25.887-37.743 1.703-3.221 5.754-10.142 9.008-15.381 12.666-20.397 35.121-69.173 40.839-88.71 1.057-3.602 3.507-11.907 5.451-18.456 12.717-42.851 21.88-98.399 21.299-129.087l-0.193-10.228-104.037-103.594c-100.343-99.917-103.829-103.245-98.152-93.764zM291.038 420.305l0.307 69.36 14.289 0.357c74.736 1.866 104.493-18.052 104.603-70.015 0.107-50.606-25.693-69.062-96.545-69.062h-22.96l0.307 69.36z"></path>
<path fill="#e84b3a" d="M469.954 2.805c-38.77 3.894-69.619 9.571-99.426 18.302-19.653 5.757-46.852 14.542-51.797 16.727-28.399 12.556-44.608 20.46-55.964 27.295-3.275 1.971-6.757 3.965-7.74 4.435-0.982 0.467-3.947 2.31-6.585 4.090-2.64 1.783-7.195 4.498-10.121 6.034-13.184 6.918-29.497 18.775-53.753 39.065-5.87 4.912-12.646 10.365-15.057 12.119-6.198 4.504-43.465 43.307-54.497 56.741-1.256 1.527-3.525 4.138-5.043 5.808-1.518 1.667-4.197 5.239-5.954 7.939s-7.344 10.687-12.419 17.751c-5.075 7.061-9.228 13.312-9.228 13.893 0 0.578-0.414 1.229-0.917 1.45-2.295 0.994-28.851 46.528-28.851 49.472 0 0.646-1.241 3.533-2.76 6.412-2.646 5.022-14.441 32.215-18.284 42.152-1.012 2.62-2.376 6.103-3.030 7.74-5.972 14.938-17.289 56.188-20.585 75.016-4.179 23.886-5.379 33.677-6.615 54.098-1.328 21.927-1.012 80.764 0.509 94.744 0.321 2.947 0.941 9.645 1.375 14.881 0.438 5.239 0.967 9.806 1.179 10.148s0.726 3.021 1.143 5.954c6.129 43.084 28.795 111.595 50.213 151.795 5.772 10.836 9.49 17.712 10.547 19.51 5.096 8.669 19.204 30.191 26.125 39.854 4.623 6.457 9.279 13.056 10.344 14.667 16.715 25.288 71.795 79.806 101.656 100.62 2.62 1.828 7.71 5.451 11.312 8.055 5.385 3.894 22.49 14.979 39.044 25.303 9.181 5.727 27.080 14.976 36.567 18.9 5.894 2.435 15.622 6.606 21.618 9.264 37.544 16.655 97.679 32.564 137.94 36.49 4.584 0.447 9.407 0.976 10.717 1.173 7.686 1.164 27.982 1.941 27.982 1.075 0-0.566-67.515-68.55-150.032-151.080l-150.032-150.047v-448.29h90.543c107.416 0 118.061 0.807 149.705 11.351 30.501 10.166 36.46 14.625 86.608 64.797l39.294 39.315 0.595-43.143 0.595-43.146 9.526-5.653c70.066-41.574 171.239-42.78 223.262-2.664 7.543 5.82 23.377 22.133 22.892 23.588-0.179 0.539 0.122 0.706 0.667 0.366 0.548-0.339 46.775 45.167 102.727 101.123 55.955 55.955 102.138 101.739 102.629 101.739 5.421 0-2.935-87.748-11.738-123.241-14.953-60.296-32.367-103.037-61.013-149.755-2.718-4.433-4.942-8.374-4.942-8.761 0-2.349-30.527-43.628-39.919-53.982-3.292-3.629-7.388-8.472-9.103-10.764-4.578-6.12-29.872-31.575-40.878-41.137-5.239-4.555-9.794-8.555-10.121-8.898-6.123-6.353-48.585-38.080-50.963-38.080-0.676 0-1.408-0.408-1.628-0.905-0.426-0.976-15.646-10.151-36.020-21.719-48.603-27.592-113.081-48.272-178.708-57.316-17.090-2.355-88.406-4.191-103.594-2.667zM834.131 392.025c0.006 5.239 0.214 7.234 0.464 4.433 0.253-2.798 0.25-7.085-0.006-9.526-0.256-2.438-0.461-0.146-0.458 5.093zM592.525 556.049l-3.498 3.87 3.87-3.498c2.128-1.923 3.87-3.664 3.87-3.87 0-0.92-0.982-0.11-4.242 3.498zM305.931 567.358c8.023 0.205 21.15 0.205 29.173 0s1.459-0.375-14.586-0.375c-16.045 0-22.609 0.17-14.586 0.375z"></path>
</svg>
